<svg width="223" height="302" viewBox="0 0 223 302" fill="none" xmlns="http://www.w3.org/2000/svg">
<path d="M53.1581 108.526L119.574 108.463V126.399L53.8089 126.396L53.8089 176.617L119.574 176.617V194.553L53.1581 194.553H35.873L35.873 108.526H53.1581Z" fill="black"/>
<rect y="144.53" width="18.4605" height="36.0419" transform="rotate(-90 0 144.53)" fill="black"/>
<path d="M137.137 194.643V176.695H222.407V194.643H137.137Z" fill="black"/>
<path d="M222.407 126.441L137.137 126.441V108.494L222.407 108.494V126.441Z" fill="black"/>
<path d="M36.043 284.306L36.043 229.522L36.043 212.222L222.406 212.222V230.243L53.9625 230.243L53.9625 284.306L36.043 284.306Z" fill="white"/>
<path fill-rule="evenodd" clip-rule="evenodd" d="M72.084 301.888L72.0844 288.016V265.424L72.0844 248.264L201.874 248.264V301.888L72.084 301.888ZM89.9798 284.013V266.139H183.979V284.013L89.9798 284.013Z" fill="white"/>
<path fill-rule="evenodd" clip-rule="evenodd" d="M189.002 90.2827L18.0113 90.2827L17.945 107.61H0.00195312L0.0682094 17.3092L0.0682094 3.8147e-05L189.002 2.28882e-05L189.002 90.2827ZM17.945 73.4636L18.0113 17.3092L173.111 17.3091L173.045 73.4635L17.945 73.4636Z" fill="white"/>
<rect x="85.6641" y="144.428" width="17.5814" height="18.4605" transform="rotate(-90 85.6641 144.428)" fill="black"/>
<rect x="65.1328" y="126.846" width="17.5814" height="18.4605" transform="rotate(-90 65.1328 126.846)" fill="black"/>
<rect x="179.725" y="144.425" width="17.5814" height="17.5814" transform="rotate(-90 179.725 144.425)" fill="black"/>
<rect x="159.193" y="126.844" width="17.5814" height="17.5814" transform="rotate(-90 159.193 126.844)" fill="black"/>
</svg>
