<svg width="223" height="323" viewBox="0 0 223 323" fill="none" xmlns="http://www.w3.org/2000/svg">
<path d="M169.248 108.526L102.833 108.463V126.399L168.598 126.396V176.617L102.833 176.617V194.553L169.248 194.553H186.534L186.534 108.526H169.248Z" fill="black"/>
<rect width="18.4605" height="36.0419" transform="matrix(0 -1 -1 0 222.407 144.53)" fill="black"/>
<path d="M85.2699 194.643V176.695H7.62939e-06V194.643H85.2699Z" fill="black"/>
<path d="M7.62939e-06 126.441L85.2699 126.441V108.494L7.62939e-06 108.494V126.441Z" fill="black"/>
<path d="M186.364 284.306V229.522V212.222L0.000610352 212.222V230.243L168.444 230.243V284.306L186.364 284.306Z" fill="white"/>
<path fill-rule="evenodd" clip-rule="evenodd" d="M150.323 322.417L150.322 308.545V265.422V248.263L0.00149536 248.263V322.417L150.323 322.417ZM132.427 304.542V266.137H17.8969V304.542L132.427 304.542Z" fill="white"/>
<path fill-rule="evenodd" clip-rule="evenodd" d="M33.4044 90.2827L204.395 90.2827L204.462 107.61H222.405L222.338 17.3092L222.338 3.8147e-05L33.4044 2.28882e-05L33.4044 90.2827ZM204.462 73.4636L204.395 17.3092L49.2956 17.3091L49.3619 73.4635L204.462 73.4636Z" fill="white"/>
<rect width="17.5814" height="18.4605" transform="matrix(0 -1 -1 0 136.743 167.525)" fill="black"/>
<rect width="17.5814" height="18.4605" transform="matrix(0 -1 -1 0 136.743 149.943)" fill="black"/>
<rect width="17.5814" height="17.5814" transform="matrix(0 -1 -1 0 42.682 167.521)" fill="black"/>
<rect width="17.5814" height="17.5814" transform="matrix(0 -1 -1 0 42.682 149.941)" fill="black"/>
</svg>
