<svg width="223" height="282" viewBox="0 0 223 282" fill="none" xmlns="http://www.w3.org/2000/svg">
<path d="M53.1581 87.9884L119.574 87.9247V105.861L53.8089 105.858L53.8089 156.079L119.574 156.079V174.015L53.1581 174.015H35.873L35.873 87.9884H53.1581Z" fill="black"/>
<rect y="124.001" width="18.4605" height="36.0419" transform="rotate(-90 0 124.001)" fill="black"/>
<path d="M137.137 174.11V156.163H222.407V174.11H137.137Z" fill="black"/>
<path d="M222.407 105.909L137.137 105.909V87.9614L222.407 87.9614V105.909Z" fill="black"/>
<path d="M36.043 263.774L36.043 208.991L36.043 191.691L222.406 191.691V209.712L53.9625 209.711L53.9625 263.774L36.043 263.774Z" fill="white"/>
<path fill-rule="evenodd" clip-rule="evenodd" d="M92.6152 281.355L92.6156 267.484V244.892L92.6156 227.732L222.405 227.732V281.355L92.6152 281.355ZM110.511 263.481V245.607H204.51V263.481L110.511 263.481Z" fill="white"/>
<path fill-rule="evenodd" clip-rule="evenodd" d="M168.471 69.7515L18.0113 69.7515L17.945 87.0791H0.00195312L0.0682094 17.309L0.0682094 -9.15527e-05L168.471 -0.000106812L168.471 69.7515ZM17.945 52.9323L18.0113 17.309L152.58 17.309L152.514 52.9323L17.945 52.9323Z" fill="white"/>
<rect x="95.9297" y="123.895" width="17.5814" height="18.4605" transform="rotate(-90 95.9297 123.895)" fill="black"/>
<rect x="65.1328" y="106.315" width="17.5814" height="18.4605" transform="rotate(-90 65.1328 106.315)" fill="black"/>
<rect x="189.99" y="123.893" width="17.5814" height="17.5814" transform="rotate(-90 189.99 123.893)" fill="black"/>
<rect x="159.193" y="106.311" width="17.5814" height="17.5814" transform="rotate(-90 159.193 106.311)" fill="black"/>
</svg>
