<svg width="275" height="341" viewBox="0 0 275 341" fill="none" xmlns="http://www.w3.org/2000/svg">
<path d="M78.3274 109.321L155.097 123.083L151.36 143.812L75.3568 130.108L64.8946 188.148L140.899 201.848L137.162 222.577L60.4059 208.741L40.4297 205.14L58.3512 105.72L78.3274 109.321Z" fill="black"/>
<rect x="6.49023" y="155.925" width="21.6785" height="42.3247" transform="rotate(-90 6.49023 155.925)" fill="black"/>
<path d="M160.559 206.746L163.697 185.905L262.715 200.817L259.576 221.658L160.559 206.746Z" fill="black"/>
<path d="M271.503 142.461L172.486 127.549L175.624 106.708L274.642 121.62L271.503 142.461Z" fill="black"/>
<path d="M48.8164 320.066L48.8164 255.733L48.8164 235.417L267.666 235.417V256.579L69.8597 256.579L69.8597 320.066L48.8164 320.066Z" fill="white"/>
<path fill-rule="evenodd" clip-rule="evenodd" d="M91.1406 340.706L91.1411 324.416V297.886L91.1411 277.735L267.666 277.735V340.706L91.1406 340.706ZM112.156 319.715V298.725H246.651V319.715L112.156 319.715Z" fill="white"/>
<path fill-rule="evenodd" clip-rule="evenodd" d="M3.54891 58.7457L201.269 23.7248L197.797 3.67495L218.545 0L231.384 72.4855L234.929 92.5004L16.4606 131.196L3.54891 58.7457ZM204.791 43.1596L210.636 76.1605L31.2909 107.927L25.4456 74.9258L204.791 43.1596Z" fill="white"/>
</svg>
