<svg width="1280" height="240" viewBox="0 0 1280 240" fill="none" xmlns="http://www.w3.org/2000/svg">
<path d="M84.7062 17.3331L101.511 0.000718866L240.364 138.854L144.591 234.627L32.8521 132.848L51.7597 115.496L144.572 201.585L207.323 138.834L101.53 33.0417L84.7062 17.3331Z" fill="#FF33EB"/>
<rect x="165.562" y="28.3428" width="28.112" height="113.585" transform="rotate(45 165.562 28.3428)" fill="black"/>
<path d="M101.965 23.9004L101.963 0.359146L-38.1235 0.359299V23.9004L83.9955 23.9002H83.997L101.965 23.9004Z" fill="#FF33EB"/>
<path d="M51.6836 138.858L51.6829 115.316L-38.124 115.317V138.858L41.4149 138.858L41.4156 138.859L51.6836 138.858Z" fill="#FF33EB"/>
<path d="M159.951 23.9881L159.954 0.446911L305.993 0.447189V23.9883L159.952 23.9881H159.951Z" fill="#FF33EB"/>
<path d="M159.951 0.447374L176.596 17.0949L104.389 89.3016L87.7429 72.6555L159.951 0.447961L159.951 0.447374Z" fill="#FF33EB"/>
<path d="M167.613 65.9121L184.258 82.5602L133.337 133.7L116.691 117.054L167.613 65.9121Z" fill="#FF33EB"/>
<path d="M79.7422 80.9863L96.3903 64.3422L149.589 117.321L132.943 133.967L79.7422 80.9863Z" fill="#FF33EB"/>
<path d="M213.767 138.858L213.768 115.316L305.993 115.317V138.858L224.313 138.858L224.312 138.859L213.767 138.858Z" fill="#FF33EB"/>
<path d="M428.823 17.3321L445.628 -0.000257696L584.481 138.853L488.708 234.626L376.969 132.847L395.877 115.495L488.689 201.584L551.44 138.833L445.648 33.0407L428.823 17.3321Z" fill="#FF33EB"/>
<rect x="509.68" y="28.3418" width="28.112" height="113.585" transform="rotate(45 509.68 28.3418)" fill="black"/>
<path d="M446.082 23.9004L446.08 0.359146L305.994 0.359299V23.9004L428.113 23.9002H428.114L446.082 23.9004Z" fill="#FF33EB"/>
<path d="M395.801 138.858L395.8 115.316L305.993 115.317V138.858L385.532 138.858L385.533 138.859L395.801 138.858Z" fill="#FF33EB"/>
<path d="M504.068 23.9872L504.071 0.445934L650.11 0.446213V23.9873L504.07 23.9872H504.068Z" fill="#FF33EB"/>
<path d="M504.068 0.446397L520.713 17.0939L448.506 89.3006L431.86 72.6545L504.068 0.446985L504.068 0.446397Z" fill="#FF33EB"/>
<path d="M511.73 65.9121L528.375 82.5602L477.454 133.7L460.808 117.054L511.73 65.9121Z" fill="#FF33EB"/>
<path d="M423.859 80.9854L440.508 64.3412L493.706 117.32L477.06 133.966L423.859 80.9854Z" fill="#FF33EB"/>
<path d="M557.885 138.858L557.885 115.316L650.11 115.317V138.858L568.43 138.858L568.429 138.859L557.885 138.858Z" fill="#FF33EB"/>
<path d="M772.941 17.3321L789.745 -0.000257696L928.598 138.853L832.825 234.626L721.086 132.847L739.994 115.495L832.807 201.584L895.557 138.833L789.765 33.0407L772.941 17.3321Z" fill="#FF33EB"/>
<rect x="853.797" y="28.3428" width="28.112" height="113.585" transform="rotate(45 853.797 28.3428)" fill="black"/>
<path d="M790.199 23.9004L790.197 0.359146L650.111 0.359299V23.9004L772.23 23.9002H772.231L790.199 23.9004Z" fill="#FF33EB"/>
<path d="M739.918 138.858L739.917 115.316L650.11 115.317V138.858L729.649 138.858L729.65 138.859L739.918 138.858Z" fill="#FF33EB"/>
<path d="M848.186 23.9881L848.188 0.446911L994.228 0.447189V23.9883L848.187 23.9881H848.186Z" fill="#FF33EB"/>
<path d="M848.186 0.447374L864.83 17.0949L792.623 89.3016L775.977 72.6555L848.185 0.447961L848.186 0.447374Z" fill="#FF33EB"/>
<path d="M855.848 65.9121L872.492 82.5602L821.571 133.7L804.925 117.054L855.848 65.9121Z" fill="#FF33EB"/>
<path d="M767.977 80.9854L784.625 64.3412L837.823 117.32L821.177 133.966L767.977 80.9854Z" fill="#FF33EB"/>
<path d="M902.002 138.858L902.003 115.316L994.228 115.317V138.858L912.547 138.858L912.546 138.859L902.002 138.858Z" fill="#FF33EB"/>
<path d="M1117.17 17.3331L1133.98 0.000718866L1272.83 138.854L1177.06 234.627L1065.32 132.848L1084.22 115.496L1177.04 201.585L1239.79 138.834L1134 33.0417L1117.17 17.3331Z" fill="#FF33EB"/>
<rect x="1198.03" y="28.3428" width="28.112" height="113.585" transform="rotate(45 1198.03 28.3428)" fill="black"/>
<path d="M1134.43 23.9004L1134.43 0.359146L994.339 0.359299V23.9004L1116.46 23.9002H1116.46L1134.43 23.9004Z" fill="#FF33EB"/>
<path d="M1084.15 138.858L1084.15 115.316L994.339 115.317V138.858L1073.88 138.858L1073.88 138.859L1084.15 138.858Z" fill="#FF33EB"/>
<path d="M1192.41 23.9881L1192.42 0.446911L1338.46 0.447189V23.9883L1192.42 23.9881H1192.41Z" fill="#FF33EB"/>
<path d="M1192.41 0.447374L1209.06 17.0949L1136.85 89.3016L1120.21 72.6555L1192.41 0.447961L1192.41 0.447374Z" fill="#FF33EB"/>
<path d="M1200.08 65.9131L1216.72 82.5612L1165.8 133.701L1149.15 117.055L1200.08 65.9131Z" fill="#FF33EB"/>
<path d="M1112.21 80.9863L1128.86 64.3422L1182.05 117.321L1165.41 133.967L1112.21 80.9863Z" fill="#FF33EB"/>
<path d="M1246.23 138.858L1246.23 115.316L1338.46 115.317V138.858L1256.78 138.858L1256.77 138.859L1246.23 138.858Z" fill="#FF33EB"/>
<path d="M1117.06 17.3331L1133.86 0.000718866L1272.72 138.854L1176.94 234.627L1065.2 132.848L1084.11 115.496L1176.92 201.585L1239.67 138.834L1133.88 33.0417L1117.06 17.3331Z" fill="#FF33EB"/>
<rect x="1197.91" y="28.3428" width="28.112" height="113.585" transform="rotate(45 1197.91 28.3428)" fill="black"/>
<path d="M1134.31 23.9004L1134.31 0.359146L994.226 0.359299V23.9004L1116.35 23.9002H1116.35L1134.31 23.9004Z" fill="#FF33EB"/>
<path d="M1084.03 138.858L1084.03 115.316L994.226 115.317V138.858L1073.76 138.858L1073.77 138.859L1084.03 138.858Z" fill="#FF33EB"/>
<path d="M1192.3 23.9881L1192.3 0.446911L1338.34 0.447189V23.9883L1192.3 23.9881H1192.3Z" fill="#FF33EB"/>
<path d="M1192.3 0.447374L1208.95 17.0949L1136.74 89.3016L1120.09 72.6555L1192.3 0.447961L1192.3 0.447374Z" fill="#FF33EB"/>
<path d="M1199.96 65.9131L1216.61 82.5612L1165.69 133.701L1149.04 117.055L1199.96 65.9131Z" fill="#FF33EB"/>
<path d="M1112.09 80.9863L1128.74 64.3422L1181.94 117.321L1165.29 133.967L1112.09 80.9863Z" fill="#FF33EB"/>
<path d="M1246.12 138.858L1246.12 115.316L1338.34 115.317V138.858L1256.66 138.858L1256.66 138.859L1246.12 138.858Z" fill="#FF33EB"/>
</svg>
