<svg width="297" height="366" viewBox="0 0 297 366" fill="none" xmlns="http://www.w3.org/2000/svg">
<path d="M70.8213 107.789L159.305 107.704V131.599L71.6884 131.596V171.15H159.305V195.046H70.8213H47.793L47.793 107.789H70.8213Z" fill="black"/>
<rect y="155.767" width="24.5943" height="48.0175" transform="rotate(-90 0 155.767)" fill="black"/>
<path d="M182.703 195.175V171.264H239.504H296.306V195.175H182.703Z" fill="black"/>
<path d="M296.306 131.665H182.703V107.754H296.306V131.665Z" fill="black"/>
<path d="M48.0195 341.984V268.998V245.949L296.305 245.95V269.958L71.8931 269.958V341.984L48.0195 341.984Z" fill="white"/>
<path fill-rule="evenodd" clip-rule="evenodd" d="M96.0332 365.404L96.0337 346.923V316.825V293.964L296.301 293.964V365.404L96.0332 365.404ZM119.875 341.59V317.777H272.46V341.59L119.875 341.59Z" fill="white"/>
<path fill-rule="evenodd" clip-rule="evenodd" d="M251.801 83.4902H23.9952L23.9069 106.575H0.00195312L0.00195313 23.0602L0.00195313 -0.000204848L251.713 -0.00022912L251.801 83.4902ZM23.9069 61.0825L23.9069 23.0602L230.541 23.0601V61.0825L23.9069 61.0825Z" fill="white"/>
</svg>
