<svg width="1280" height="125" viewBox="0 0 1280 125" fill="none" xmlns="http://www.w3.org/2000/svg">
<rect width="2136.23" height="124.217" transform="translate(-284.682)" fill="#FF33EB"/>
<path d="M82.286 39.721C69.9216 24.3916 47.4709 21.988 32.1415 34.3523L76.9172 89.8654C92.2466 77.5011 94.6503 55.0503 82.286 39.721Z" fill="black"/>
<path d="M54.5301 62.1087C42.1658 46.7793 19.715 44.3756 4.38565 56.74L49.1614 112.253C64.4907 99.8888 66.8944 77.438 54.5301 62.1087Z" fill="black"/>
<path d="M138.65 72.0369L170.979 51.7687L176.658 13.8967L196.899 46.4057L234.617 52.1808L202.287 72.449L196.609 110.321L176.368 77.812L138.65 72.0369Z" fill="black"/>
<path d="M312.729 62.1081L287.231 105.902L268.592 37.208L312.729 62.1081ZM347.547 52.661L338.227 18.3138L312.729 62.1081L356.866 87.0081L347.547 52.661Z" fill="black"/>
<path d="M396.295 77.4632L426.092 53.6279L427.399 15.3549L451.228 45.3335L489.359 46.7536L459.561 70.5889L458.255 108.862L434.426 78.8833L396.295 77.4632Z" fill="black"/>
<path d="M538.619 71.9425C544.05 90.8731 563.799 101.817 582.73 96.3861L563.063 27.8313C544.132 33.2623 533.188 53.0118 538.619 71.9425Z" fill="black"/>
<path d="M572.896 62.1085C578.327 81.0391 598.077 91.9831 617.007 86.5522L597.34 17.9973C578.409 23.4283 567.465 43.1778 572.896 62.1085Z" fill="black"/>
<path d="M650.984 72.0369L683.313 51.7687L688.992 13.8967L709.233 46.4057L746.951 52.1808L714.621 72.449L708.943 110.321L688.702 77.812L650.984 72.0369Z" fill="black"/>
<path d="M830.183 62.1084L780.926 74.0206L817.602 13.0186L830.183 62.1084ZM861.102 80.6972L879.439 50.1962L830.183 62.1084L842.764 111.198L861.102 80.6972Z" fill="black"/>
<path d="M914.197 51.4026L952.003 46.2409L972.77 14.065L977.833 52.0242L1009.83 72.8149L972.022 77.9766L951.255 110.152L946.193 72.1933L914.197 51.4026Z" fill="black"/>
<path d="M1055.81 50.8879C1049.61 69.5819 1059.74 89.7604 1078.44 95.9572L1100.88 28.2595C1082.18 22.0627 1062 32.194 1055.81 50.8879Z" fill="black"/>
<path d="M1089.66 62.1086C1083.46 80.8026 1093.59 100.981 1112.29 107.178L1134.73 39.4802C1116.03 33.2834 1095.85 43.4147 1089.66 62.1086Z" fill="black"/>
<path d="M1174.15 77.4632L1203.95 53.6279L1205.26 15.3549L1229.09 45.3335L1267.22 46.7536L1237.42 70.5889L1236.11 108.862L1212.28 78.8833L1174.15 77.4632Z" fill="black"/>
</svg>
