<svg width="286" height="271" viewBox="0 0 286 271" fill="none" xmlns="http://www.w3.org/2000/svg">
<path d="M1.12455e-06 0L54.3285 0L71.4849 0L71.4847 184.815H53.6136L53.6138 17.7706H0L1.12455e-06 0Z" fill="white"/>
<path d="M71.4847 184.815H53.6136V252.26H0L0 270.828H71.4849L71.4847 184.815Z" fill="white"/>
<path d="M92.1745 29.6654H146.503H163.659L163.659 151.092H145.788L145.788 47.436L92.1745 47.436V29.6654Z" fill="white"/>
<path d="M163.659 151.092H145.788V218.537H92.1745V237.106H127.917H163.659L163.659 151.092Z" fill="white"/>
<path d="M183.174 48.8281H217.084H227.792L227.792 164.182H216.637L216.637 59.9199H183.174L183.174 48.8281Z" fill="white"/>
<path d="M227.792 164.182H216.637V206.279H183.174V217.869H227.792L227.792 164.182Z" fill="white"/>
<path d="M240.706 67.3441H274.615H285.324L285.324 143.134H274.169L274.169 78.4358H240.706V67.3441Z" fill="white"/>
<path d="M285.324 143.134H274.169V185.231H240.706V196.82H263.015H285.324L285.324 143.134Z" fill="white"/>
</svg>
