<svg width="265" height="306" viewBox="0 0 265 306" fill="none" xmlns="http://www.w3.org/2000/svg">
<path d="M122.313 96.1618V117.495L200.537 117.493V177.227H122.313V198.561H221.87V96.2375L122.313 96.1618Z" fill="black"/>
<path d="M264.539 139.067V117.109H221.669V139.067H264.539Z" fill="black"/>
<path d="M101.423 198.669V177.322H-0.000793457V198.669H101.423Z" fill="black"/>
<path d="M-0.000793457 117.548H101.423V96.2002H-0.000793457V117.548Z" fill="black"/>
<path d="M221.669 305.318V219.579L0.000640869 219.579V241.014L200.354 241.014V305.318H221.669Z" fill="white"/>
<path fill-rule="evenodd" clip-rule="evenodd" d="M39.7328 74.5397H243.117L243.195 95.1499H264.538V2.16697e-05L39.8116 0L39.7328 74.5397ZM243.195 54.5343V20.5882L58.7133 20.5882V54.5343L243.195 54.5343Z" fill="white"/>
<path d="M156.542 166.418V145.506H134.585V166.418H156.542Z" fill="black"/>
<path d="M156.54 145.502V124.59H134.583V145.502H156.54Z" fill="black"/>
<path d="M44.6614 166.412V145.5H23.7494V166.412H44.6614Z" fill="black"/>
<path d="M44.6614 145.5L44.6619 124.588H23.7499L23.7494 145.5H44.6614Z" fill="black"/>
</svg>
